<svg xmlns="http://www.w3.org/2000/svg" viewBox="0 0 1008 1008"><path fill="currentColor" d="M506 876q-16 10-31.5 10t-30-6-23-14.5-14.5-23-6-26.5V668h-58q-20 0-33.5-13.5T296 622V504q0-19 13.5-32.5T343 457h58v-48H190q-19 0-32-13l-62-59q-15-14-15-34t14-33l63-60q13-12 32-12h211v-6q0-29 20.5-49.5T471 122t49.5 20.5T541 192v6h58q19 0 33 13.5t14 32.5v118q0 19-14 33t-33 14h-58v49h277q19 0 32 13l63 58q14 14 14 34t-14 33l-63 60q-13 13-32 13H541v147q0 40-35 60zm93-499q15-2.5 15-15V244q0-14-15-14h-91v-38q0-16-11-27t-26.5-11-26.5 11-11 27v38H190q-6 0-10 4l-63 59q-4 4-4 10t5 11l62 58q4 5 10 5h243v113h-90q-6 0-10 4t-4 10v118q0 8 5 11t9 3h90v180q0 16 11 27t26.5 11 26.5-11 11-27V636h310q6 0 10-4l63-59q4-4 4-10t-5-10l-62-59q-4-4-10-4H508V377h91z"/></svg>
