<svg xmlns="http://www.w3.org/2000/svg" viewBox="0 0 1008 1008"><path fill="currentColor" d="M816 234q8 9 8 15.5V896q-1 9-8 17t-17 10l-1-3 1 3h-2q-3 1-6 1H217q-3 0-6-1h-2q-9-2-16.5-9.5T184 897V122q0-19 10-29t23-10h439q10 0 18 8zm-23 657V716H215v175q0 2 1 2h576q1 0 1-2zM677 230h93l-93-93v93zm115 31l-145 1V114l-430 1q-2 0-2 8v563h578V261h-1zM436 804v8q0 34-26 48-13 7-20.5 7H348V749h35.625L410 756q26 15 26 48zm-67 46h19.875L407 839.5l9-18.5-1-10v-6q1-2 1-10t-9-18.5-16-10.5h-22v84zm181-47v17q0 8-6 21-12 27-42 27h-1q-30 0-42-27-7-13-7-23v-21.5q0-7.5 6-21.5 12-28 42-28h9.5l17.5 8q23 14 23 48zm-69.5-27.5Q473 787 473 797.25v23.25q0 8.5 7.5 19.5t14.5 11h7q13 0 20.5-11t7.5-19-1-10v-6q1-2 1-10t-7.5-19.5T502 764h-2q-12 0-19.5 11.5zM660 828q-1 18-14 29t-23 11h-10q-29 0-40-25-6-13-6-20.5v-28q0-7.5 6-20.5 11-27 41-27h10.5q8.5 0 21.5 11.5t14 29.5h-20q-1-11-8-17.5t-12.5-6.5h-12q-6.5 0-13.5 10.5t-7 18.5v29q0 8 7 19t19 11h7q5 0 12-6.5t8-17.5h20zM388 423h-26l-40-133h31l19 75q4 4 4 15 3-10 8-24l21-66h25l20 65q4 13 6 24 3-11 7-24l18-65h32l-43 133h-27l-20-67q-5-15-6-21-4 13-9 26zm167-3q0-7 4.5-11.5T571 404h110q7 0 11.5 4.5T697 420t-4.5 12-11.5 5H571q-7 0-11.5-5t-4.5-12zm-241 70.5q0-17.5 16-17.5h351q7 0 11.5 5t4.5 11.5-4.5 11.5-11.5 5H330q-7 0-11.5-5t-4.5-10.5zm16 84.5q-16 0-16-17.5 0-5.5 4.5-10.5t11.5-5h351q7 0 11.5 5t4.5 11.5-4.5 11.5-11.5 5H330z"/></svg>
