<svg xmlns="http://www.w3.org/2000/svg" viewBox="0 0 1008 1008"><path fill="currentColor" d="M430 723V566L184 798q-6 5-13.5 5t-13-5.5T152 784t6-14l246-232H235q-8 0-13.5-5.5t-5.5-13 5.5-13T235 501h233v222q0 7-5.5 12.5T449 741t-13.5-5.5T430 723zM186.5 209q18.5 0 32 13t13.5 31.5-13.5 31.5-32 13-31.5-13-13-31.5 13-31.5 31.5-13zm.5 67q9 0 15.5-6.5t6.5-16-6.5-16T187 231t-15.5 6.5-6.5 16 6.5 16T187 276zm100.5-67q18.5 0 31.5 13t13 31.5-13 31.5-31.5 13-31.5-13-13-31.5 13-31.5 31.5-13zm-.5 67q9 0 16-6.5t7-16-7-16-16-6.5-15.5 6.5-6.5 16 6.5 16T287 276zm56-19q0-28.8 22-42 10-6 25.5-6t28.5 13 13 31.5-13 31.5-31.5 13-31.5-13-13-28zm44.5 19q9.5 0 16-6.5t6.5-16-6.5-16-16-6.5-16 6.5-6.5 16 6.5 16 16 6.5zM884 152q16 0 28 12t12 28v619q0 19-13 32t-32 13H345q-20 0-20-17 1-18 19-18h528q7 0 11.5-5t4.5-11V355H120v244q0 5-6.5 10.5t-12.5 5-11-5-6-10.5V192q0-23 20-35 9-5 20-5h760zM121 320h767V201q0-5-3.5-9t-8.5-4H132q-11 1-11 13v119z"/></svg>
