<svg xmlns="http://www.w3.org/2000/svg" viewBox="0 0 1008 1008"><path fill="currentColor" d="M311 194h-9q-68 3-118.5 54-82.88 83.7-37 192.5Q164 482 199 517l289 290q7 7 16 7t15-6l295-294q25-26 46-69.5t19-80.5q-5-66-55.5-116T706 194h-8q-44 0-90 26.5T540 285l-14 26q-8 13-22.5 13T482 311l-14-26q-22-38-67.5-64.5T311 194zm-11-42h11q54 0 110.5 33t82.5 80q26-47 82.5-79.5T697 153h11q82 4 144 65.5T919 362q3 48-21.5 99T843 543L548 838q-18 18-44 18t-44-18L169 547q-57-57-75-130-7-27-6-52 5-83 67-145.5T300 152z"/></svg>
