<svg xmlns="http://www.w3.org/2000/svg" viewBox="0 0 1008 1008"><path fill="currentColor" d="M116 947q-23 0-39-16t-16-39V116q0-23 16-39t39-16h776q32 0 48 27 8 13 8 28v776q0 23-16.5 39T892 947H116zm660-473l1-52v-95q0-21-17-32.5T724 283h-81v7h19v428h-19v8h83v-8h-28V544h26q36-2 48-26 5-9 5-18zM446 696.5L458 587q3-21 4-32.5t3-11.5h41q2 0 2 1t3 26l17 148h-19v7h73v-7h-19l-49-436h-30q-2 0-2.5 8.5T479 314l-36 322q0 27-7 62-3 20-24 20v7h55v-7q-5-1-8.5-1t-8-5-4.5-9v-6.5zM330 282v5q0 10-9 4-18-13-31-13-36.5 0-47.75 18T231 330v336q0 31 14.5 47.5t35 16.5 32.5-7.5 15.5-7.5 6.5 10l1 2h8V518h17v-7h-74v7h21v180q0 7-4.5 16t-17.5 9q-21 0-21-25V314q1-28 18-28 9 0 17 12 30 41 30 124h8V282h-8zm369 8q6-1 11.5-1 15.1 0 23.8 8t8.7 21v197q0 6-6.5 12.5T723 535h-24V290zM464 535l21-188h1l21 188h-43z"/></svg>
