<svg xmlns="http://www.w3.org/2000/svg" viewBox="0 0 1008 1008"><path fill="currentColor" d="M847 157q33 0 56.5 23.5T927 237v534q0 33-23.5 56.5T847 851H161q-46 0-69-40-11-18-11-40V237q0-33 23.5-56.5T161 157h686zm-686 33q-19 0-33 13.5T114 237v417l246-213q17-15 39.5-15t39.5 14l174 143 4 4 56-44q17-13 38-13t38 13l145 112V237q0-19-14-33t-33-14H161zm686 627v1q20 0 33.5-14t13.5-33v-82q-8 3-14-3L729 569q-8-6-17.5-6t-17.5 6L548 684q-4 3-11 3t-11.5-5.5-4.5-12 7-11.5l63-50-173-143q-8-6-18-6t-18 7L131 683q-7 7-17 3v84q0 20 14 33.5t33 13.5h686zM707.5 475q-38.5 0-66-27.5t-27.5-66 27.5-66 66-27.5 65.5 27.5 27 66-27 66-65.5 27.5zm-.5-154q-25 0-42.5 18T647 381.5t17.5 42.5 42.5 18 42.5-18 17.5-42.5-17.5-42.5-42.5-18z"/></svg>
