<svg xmlns="http://www.w3.org/2000/svg" viewBox="0 0 1008 1008"><path fill="currentColor" d="M491 531l-1 6-4 6q4-6 5-12zM242 152q25 13 25 42.321T238 234v33l265-74q1-1 2-1 8 0 8 8v1l-2 30 294-93q1-1 3-1 9 0 9 9 0 3-2 5L672 381l154 125q4 3 4 8.5t-7 7.5l-401 84h-2q-7 0-7-8v-1l3-34-177 36v254q0 7-5.5 12.5t-10 5.5-7.5-1-7.5-3-4.5 2l-1-635q-13-5-18-16-8-13-8-26.5t12.5-29T217 147t25 5zm-19 26q-16 0-16 13 0 9.714 5.5 12.857Q218 207 222.5 207t9-4.5T236 192t-4.5-10-8.5-4zm16 374l218-41 18-271-236 64v248zm235 6l284-60-133-109 119-191-236 71-17 262q-1 6-5 12zm17-28v1-1zm-5 13l-12 15z"/></svg>
