<svg xmlns="http://www.w3.org/2000/svg" viewBox="0 0 1008 1008"><path fill="currentColor" d="M120 779q-7 0-12-5t-5-11V176q0-7 5-12t12-5h152q7 0 11.5 5t4.5 12v587q0 6-4.5 11t-11.5 5H120zm14-589v62h123v-62H134zm0 93v465h123V283H134zm202 496q-7 0-12-5t-5-11V176q0-7 5-12t12-5h151q7 0 12 5t5 12v587q0 6-5 11t-12 5H336zm14-589v62h123v-62H350zm0 93v465h123V283H350zm204-87v-4q0-13 12-16l147-39q2-1 4-1 13 0 16 12l151 567q1 2 1 4 0 13-13 16l-146 40h-5q-12 0-15-12zm34 6l16 60 119-32-16-60zm263 507L731 260l-119 32 120 449zM97 841h814q7 0 11.5 4.5t4.5 11-4.5 11T911 872H97q-7 0-11.5-4.5t-4.5-11 4.5-11T97 841z"/></svg>
