<svg xmlns="http://www.w3.org/2000/svg" viewBox="0 0 1008 1008"><path fill="currentColor" d="M918 250q7 5 7 13.5t-9 12.5q-48 30-103.5 84t-81 93-45.5 73.5-25 43.5l-32.5 58.5L576 714q-74.734 110.718-187 141.5-31 8.5-55 8.5h-5q-25 0-54.5-12T228 823L126 720q-14-13-28-41.5T84 620q0-82 53-150 71-91 167-86 20 1 43 11.5t37 23.5l106 106q4-7 13-23l17-31q51-92 82-137.5T690 233t106-86q4-3 10.5-3t11.5 6zM581 486q0-15 15.5-15 6.5 0 15 9t21.5 22l20 20 7-12q8-14 24-40l-50-50q-5-5-5-11.5t4.5-11 11-4.5 17 11 18 18.5T700 444l36-48-51-51q-6-5-6-11 0-16 14-16 13.143 0 50 43l12 12 41-43-48-48q-6-4-6-11t4.5-11.5T758 255t12 6l8 8q31 31 40 41l33-26-82-82q-30 22-67.5 59T630 345t-66.5 107-59 108.5T436 656q-67 72-148 96-28 8-48 8t-34-2l48 48q11 11 27 17l-22-21q-7-6-7-14 0-15 16-15 6 1 24 18 41 42 44 43 37-2 68-14-6-6-45-44-5-5-5-11t4.5-10.5 11-4.5 13.5 6l13 13q18 19 37 38l14-8q23-15 36-26l-48-47q-5-5-5-11.5 0-15.5 14.5-15.5 6.5 0 18 11.5L483 731q6 6 22 23l39-45q-25-26-51-51-5-5-5-12 0-15 15.5-15 6.5 0 14 8t17.5 19l26 25 31-52-43.5-43.5L543 555q3-3 8.5-3t12 7 23.5 23l21 21 30-54-52-52q-5-4-5-11zM306 715l-27-26q-7 18-10 38 19-4 37-12zm4-112l-75-75q-11 14-14 31-4 32 20 46 12 8 31 8t38-10zm100-35q0-15 15-15 6 0 18 11l14 16 17-26-62-63q-2.678 69.63-61 120-36 29-73 31l58 59 23-15q-8-7-22-21t-2-24q4-4 10-4 7 0 19 12l17 19q34-28 60-63-22-21-26.5-26t-4.5-11zm-29-68v-1q1-3 1-11.5t-7.5-25T356 437q-42-39-104-17-70 23-110 96-20 35-25 71-16 103 67 135 22 9 34 9h17q5-14 19-63-65-55-65-93.5t34-77.5q4-6 11.5-6t12.5 6q62 62 88 86 16-13 30-37.5t16-45.5z"/></svg>
