<svg xmlns="http://www.w3.org/2000/svg" viewBox="0 0 1008 1008"><path fill="currentColor" d="M816 234q9 9 9 15.5t-1 8.5v638q-1 10-8 17.5t-16 9.5l-2-3 1 3h-2q-3 1-6 1H217q-3 0-6-1h-2q-9-2-16.5-9.5T184 897V122q0-18 10-28.5T217 83h439q10 0 18 8zm-138-96v93h92zm116 753l-1-175H215v175q0 2 1 2h576q2 0 2-2zm-1-205V261H647V114H217q-2 0-2 9v563h578zM599 447q86-17 102 13 8 15-5.5 34.5t-40 19.5-65.5-37q-74 16-144 46-16 36-39.5 70t-45 33.5T331 601q-3-7-3-10.5V585q5-40 98-83 38-85 61-175-34-75-20-108 7-22 26.5-22t29.5 13q16 20-7 114 33 68 83 123zM362 599q15-4 43-56-66 38-43 56zm142-370q-8.5-17-15.5 3-3.5 10-2 25t11.5 26q15-32 6-54zm-42 258q52-20 106-33-36-42-62-90-19 62-44 123zm214-15q-6-3-20-3t-29 2q4 2 8.5 6t8 6.5 16 2.5 16.5-14zM452 785v3q0 16-12.5 25.5t-21 9.5H384v44h-20V749h54.5q8.5 0 21 10.5T452 785zm-27 16q6-6 6-10.25v-9.25q0-4.5-6-10.5-7-6-11.5-6H384v41h24.375L425 801zm132 3v8q0 34-26 48-12 7-19.5 7H469V749h35.75l27.25 7q25 15 25 48zm-29 36q8-11 8-21.5V795q0-8-8-19-9-10-16-10h-22v84h19.25L528 840zm70-23v50h-21V749h75v17h-54v35h47v16h-47z"/></svg>
