<svg xmlns="http://www.w3.org/2000/svg" viewBox="0 0 1008 1008"><path fill="currentColor" d="M816 234q8 9 8 15.5V896q-2 13-10.5 19.5T799 923l-1-3v3h-1q-3 1-6 1H217q-3 0-6-1h-2q-9-2-16.5-9.5T184 897V122q0-19 10-29t23-10h439q10 0 18 8zm-23 657V716H215v175q0 2 1 2h576q1 0 1-2zM678 231h92l-92-93v93zm115 30H647V114H217q-2 0-2 9v563h578V261zM444 784v3q0 15-12 25t-21 10h-35v43h-20V748h55q9 0 21 10t12 26zm-27 15.5q6-5.5 6-9.75v-9.25q0-4.5-6-10.5t-11-6h-30v41h25l16-5.5zM549 784v9.75L537 812l-20.5 10H482v43h-20V748h54.5q8.5 0 20.5 10t12 26zm-26 16q6-6 6-10.25v-9.25q0-4.5-6-10.5-7-6-11.5-6H482v41h24.375L523 800zm72 65V764h-36v-16h93v16h-36v101h-21zm-91-621q13 0 13 14v13h125q5 0 9 4t4 10v165q0 6-4 10t-9 4h-64l22 65v4q0 3-3 8t-11.5 5-12.5-9l-24-73h-31v83q0 5-4 9.5t-10 4.5-10-4.5-4-9.5v-83h-31l-24 73q-4 9-11 9-16 0-16-14v-3l22-65h-63q-6 0-10-4t-4-10V285q0-6 4-10t10-4h123v-13q0-6 4-10t10-4zm124 193V299H380v138h248z"/></svg>
