<svg xmlns="http://www.w3.org/2000/svg" viewBox="0 0 1008 1008"><path fill="currentColor" d="M810 609q5-5 12.5-5t12.5 5 5 12v171q0 26-18 44t-44 18H145q-25 0-42.5-18T85 793V317q0-25 17.5-42.5T145 257h267.5q3.5 0 8.5 4.5t5 8v7.5q0 4-5 9t-8.5 5H146q-16 0-21.5 9.5t-5.5 13V793q0 11 8 19t19 8h638.5q5.5 0 13-8t7.5-19V621q0-7 5-12zm106-253q6 5 6 13t-6 14L665 565q-10 6-18 1t-8-15v-71q-121 1-184 37-46 26-61 45-6 6-12 6-19 0-19-16v-5q33-182 139-256 25-17 64.5-30t70.5-13v-77q0-17 18-17 6 0 10 3zM437 489q61-43 219-43 7 0 11.5 4.5T672 462v55l205-149-205-161v59q0 7-5 12t-13 5h-12q-171 0-234 228 21-17 29-22z"/></svg>
