<svg xmlns="http://www.w3.org/2000/svg" viewBox="0 0 1008 1008"><path fill="currentColor" d="M816 234q8 9 8 15.5V896q-2 13-10.5 19.5T799 923l-1-3v3h-1q-3 1-6 1H217q-3 0-6-1h-2q-9-2-16.5-9.5T184 897V122q0-19 10-29t23-10h439q10 0 18 8zm-23 657V716H215v175q0 2 1 2h576q1 0 1-2zM678 231h92l-92-93v93zm115 30H647V114H217q-2 0-2 9v563h578V261zM512 420q0-7 5-11.5t12-4.5h152q7 0 11.5 4.5T697 420t-4.5 12-11.5 5H529q-7 0-12-5t-5-12zm-198 70.5q0-17.5 16-17.5h351q7 0 11.5 5t4.5 11.5-4.5 11.5-11.5 5H330q-7 0-11.5-5t-4.5-10.5zm16 84.5q-16 0-16-17.5 0-5.5 4.5-10.5t11.5-5h351q7 0 11.5 5t4.5 11.5-4.5 11.5-11.5 5H330zm-9-290h160v43h-22l-5-18-5-3h-28v98l6 5 19 1v17h-91v-17l20-1 6-5v-98h-28l-5 3-5 18h-22v-43zm123 481h-37v103h-21V766h-37v-17h95v17zm57 26l25-43h24l-36 59 37 61h-24l-26-44-26 44h-24l37-61-36-59h24zm152-26h-38v103h-20V766h-37v-17h95v17z"/></svg>
