<svg xmlns="http://www.w3.org/2000/svg" viewBox="0 0 1008 1008"><path fill="currentColor" d="M390.5 299.5Q438 252 504.5 252T618 299.5 665 413q0 44-21.5 81T585 552.5 504 574q-67 0-114-47t-47-113.5 47.5-114zm210 210q39.5-39.5 39.5-96T600 317t-96-39.5-95.5 40-40 95.5 39.5 96 96.5 40 96-39.5zM461 344q0-13 13.5-13 3.5 0 6.5 3l100 69q6 4 6 10.5t-6 10.5l-100 69q-3 2-7 2-13 0-13-12V344zm91 69l-65-45v90zm321 260H134q-21 0-35.5-14.5T84 623V204q0-21 14.5-35.5T134 154h739q21 0 35.5 14.5T923 204v419q0 21-14.5 35.5T873 673zM134 186q-7 0-12 5t-5 13v419q0 7 5 12t12 5h739q7 0 12-5t5-12V204q0-8-5-13t-12-5H134zm190 616q0-18 16-18h568q6 0 11 5t5 12-5 11.5-11 4.5H340q-7 0-11.5-4.5T324 802zm-163 15h-60q-7 0-11.5-4.5T85 801t4.5-12 11.5-5h60q7 0 12 5t5 12-5 11.5-12 4.5zm90.5 37q-22.5 0-38-15.5t-15.5-38 15.5-38 38-15.5 38.5 15.5 16 38-16 38-38.5 15.5zm26.5-50.5q0-29.5-29-29.5-8 0-16 8t-8 19 8 18.5 19 7.5 18.5-7.5 7.5-16z"/></svg>
