<svg xmlns="http://www.w3.org/2000/svg" viewBox="0 0 1008 1008"><path fill="currentColor" d="M449 288v49h257v221H302V288h147zm-25 245v-25h-98v25h98zm0-49v-25h-98v25h98zm0-49v-25h-98v25h98zm0-49v-25h-98v25h98zm0-49v-25h-98v25h98zm258 196v-25H449v25h233zm0-49v-25H449v25h233zm0-49v-25H449v25h233zm0-73H449v25h233v-25zm134-132q8 8 8 15v656q-2 12-10.5 18.5T799 927h-2q-3 1-6 1H217q-3 0-6-1h-2q-9-2-16.5-9.5T184 901V118q0-18 10-28.5T217 79h439q10 0 18 8zm-23 665V720H214v175q0 2 2 3h576q1-1 1-3zM678 226h92l-92-92v92zm116 31H647V110H217q-2 0-2 8v572h579V257zM385 871h-23l36-59-36-59h24l25 43 25-43h23l-35 59 36 59h-24l-25-43zm164-17v17h-74V753h20v101h54zm77-71q0-4-6-9.5t-10.25-5.5H602q-20 0-20 16 0 13 26 19.5t32 17.5 6 22.5-12 20-20 8.5q-37 0-46.5-13t-9.5-18v-6h21v5.5q0 4.5 6 10.5 8 5 13.375 5H609.5q4.5 0 10.5-4t6-11v-1q0-14-25-20-39-9.75-39-34 0-16 12-25t20-9q52 0 52 36h-20v-5z"/></svg>
